<svg xmlns="http://www.w3.org/2000/svg" viewBox="0 0 410.79 370.51"><defs><style>.cls-1{fill:#fff;}.cls-2{fill:#0069ec;}</style></defs><g id="Capa_2" data-name="Capa 2"><g id="Capa_1-2" data-name="Capa 1"><path class="cls-1" d="M237.31,73.55h-25.2V53.67a27.26,27.26,0,1,0-13.43,0V73.55h-25.2A173.48,173.48,0,0,0,0,247H0A123.48,123.48,0,0,0,123.48,370.51H287.31A123.49,123.49,0,0,0,410.79,247h0A173.48,173.48,0,0,0,237.31,73.55Z"/><path d="M144.33,106.82H266.45A112.19,112.19,0,0,1,378.65,219v0a55.44,55.44,0,0,1-55.44,55.44H87.58A55.44,55.44,0,0,1,32.14,219v0A112.19,112.19,0,0,1,144.33,106.82Z"/><path class="cls-2" d="M185.3,209.26H178q-16.89-14.87-44.13-14.87-26.87,0-43.74,14.87h-5q14.43-33.15,50.09-33.15T185.3,209.26Z"/><path class="cls-2" d="M344.16,209.26h-7.3Q320,194.4,292.73,194.39q-26.87,0-43.75,14.87h-5q14.43-33.15,50.09-33.15T344.16,209.26Z"/></g></g></svg>