<svg xmlns="http://www.w3.org/2000/svg" viewBox="0 0 560.87 560.87"><defs><style>.cls-1{fill:#8335fd;}.cls-2{fill:#f0f0f0;}</style></defs><g id="Capa_2" data-name="Capa 2"><g id="Capa_1-2" data-name="Capa 1"><circle class="cls-1" cx="280.44" cy="280.44" r="280.44"/><path class="cls-2" d="M247.29,135.73v60.35h44.2v59.49h-44.2v52.28c0,25.49,4.25,37.39,25.5,37.39a94.51,94.51,0,0,0,19.12-1.7v60.35c-8.92,3.4-27.19,6.37-48,6.37-24.22,0-44.19-9.35-55.24-20.82-12.75-13.17-19.13-34.85-19.13-65.87v-68H143.17V196.08h26.35V153.15Z"/><path class="cls-2" d="M321.23,364.79c0-26.77,18.28-45.47,45.9-45.47S412.6,338,413,364.79c0,26.35-18.28,45.47-45.9,45.47S321.23,391.14,321.23,364.79Z"/></g></g></svg>